<svg width="132" height="130" viewBox="0 0 132 130" fill="none" xmlns="http://www.w3.org/2000/svg">
<path d="M51.2709 84.2347C50.8172 87.1815 43.2162 90.6353 40.5081 92.0326C32.9394 95.9378 25.1693 99.518 17.7536 103.678C17.1528 103.816 16.2997 102.822 15.9258 102.441C12.5285 98.9842 8.94177 93.5531 6.88369 89.286C6.5285 88.5489 5.32696 86.1202 5.36945 85.4883C5.39919 85.044 5.63541 84.8619 6.05604 84.6979L22.5997 84.6296L25.0623 82.3163C25.3546 80.3837 25.3316 78.4071 25.1914 76.4565C24.6238 76.1998 23.9109 75.9792 23.4766 75.5287C23.0178 75.053 23.0135 74.2123 22.621 73.9642C22.1103 73.6408 20.6861 73.6212 19.912 73.3268C18.1199 72.6463 16.9736 70.5771 18.0918 68.9695C18.5515 68.3085 19.5576 68.2646 19.9757 67.5581C19.9213 66.5031 19.2143 65.697 19.1455 64.6161C18.9891 62.1505 21.19 60.013 23.9032 60.7713C24.0766 61.4134 23.3347 61.6701 23.2676 62.291C23.0994 63.8554 25.1651 63.8562 26.0599 64.8209C26.4253 64.7566 26.6411 64.5572 27.049 64.5266C29.882 64.3131 32.9921 64.7244 35.8557 64.4983C36.8754 64.178 37.2085 63.2235 36.8261 62.3334H30.1131C29.1172 62.3334 28.8479 60.2493 28.5037 59.7383C28.1596 59.2273 26.4236 58.4046 25.7778 57.8606C23.7927 56.191 23.5574 54.1014 25.7769 52.5213C24.136 51.168 23.2387 48.8846 24.1624 46.9457C24.8481 45.5053 27.1076 44.4958 28.4638 45.7682C28.3805 46.1992 27.8545 46.2345 27.7135 46.627C27.3957 47.5148 29.4648 48.0949 30.0877 48.5407C30.3596 48.7354 30.5559 49.2229 30.8116 49.2708C31.0224 49.31 31.8747 49.0039 32.3165 48.9827C34.3678 48.8861 36.4505 49.0839 38.5018 48.9662L38.6777 47.7479C37.2901 47.2777 35.2048 48.0093 34.0177 47.109C33.1263 46.4331 33.6778 45.3239 33.0932 44.6661C32.7159 44.2407 31.081 43.743 30.4539 43.1794C29.2337 42.0828 29.3747 40.2782 30.8754 39.4909C29.5923 38.5081 28.7994 37.1736 29.0246 35.5794C29.2243 34.1696 31.1609 32.6758 32.5706 33.6923C31.8398 35.0841 32.9054 35.2568 33.9226 35.8934C34.1707 36.0488 34.4409 36.4366 34.6108 36.5072C34.8845 36.6202 35.2329 36.2725 35.3816 36.2725H41.4147L41.2558 34.7709L38.4304 34.555C38.2469 34.0306 38.4695 33.5196 38.263 32.9827C37.9911 32.277 36.2262 31.5392 36.0129 30.6655C35.8302 29.9174 35.973 27.4691 37.0725 27.4715C37.5841 27.4722 38.2656 27.7854 38.8672 27.6379C39.2088 25.2814 36.3078 24.3818 37.2578 21.9893C37.5917 21.1493 38.3021 20.6619 39.2878 20.72C40.6253 20.7992 39.9778 21.5465 40.3832 22.0756C40.435 22.1439 41.7529 23.0592 41.843 23.0576C41.9535 23.056 42.1421 22.7091 42.3843 22.6431C42.7216 22.5505 44.5571 22.5222 44.6446 22.4547C44.4492 21.3205 43.1941 20.7498 42.8933 19.6006C42.4497 17.9066 43.8229 17.1853 44.7202 16.0094C45.0066 15.6342 45.8768 13.7542 46.3976 13.8413L47.0239 14.1341C46.9874 13.3067 47.1896 11.9205 47.702 11.2281C47.9484 10.8953 48.4005 10.7642 48.6274 10.513C49.1287 9.95807 49.2341 9.23276 50.0915 8.72646C50.3923 8.54827 51.2735 8.29865 51.2735 8.71861V84.2324L51.2709 84.2347Z" fill="#4A2418"/>
<path d="M80.5022 8.32849C81.3587 8.34812 82.1329 8.80967 82.6198 9.43372C82.8228 9.69355 82.8466 10.0319 83.0489 10.2933C83.7882 11.247 84.6761 11.6536 84.4289 13.1796C86.402 13.3609 86.0476 15.1648 86.5396 16.1742C86.7937 16.6962 88.2145 16.949 88.7405 18.2214C89.5868 20.2694 87.2194 20.7239 86.7903 22.4563C88.3776 22.1588 90.0644 23.3009 91.2124 21.9123C91.7239 21.293 91.2625 20.6964 92.5244 20.6062C93.7862 20.5159 94.7031 21.7381 94.6003 22.8323C94.4958 23.9478 93.7489 24.3803 93.1736 25.137C92.4496 26.0891 92.1913 27.1245 90.53 26.8561L92.9934 27.3168C93.4854 27.32 93.7531 26.6755 94.4881 26.8796C94.9878 27.0185 95.7602 29.5438 95.7627 30.0728C95.7712 31.9473 94.3709 31.81 93.686 32.675C93.2721 33.1978 93.6511 34.8611 92.6535 34.8611H89.6794L89.7032 36.0166L89.9581 36.2521C92.2057 36.4287 94.5995 35.9687 96.7688 36.5543C97.9126 35.588 99.5976 35.4679 99.2238 33.7088C100.166 32.7394 102.037 33.8854 102.434 34.9318C103.088 36.6564 102.169 38.4115 100.73 39.4972L100.728 39.7248C102.68 40.6055 102.244 42.4683 100.712 43.5601C100.249 43.8898 98.8558 44.4212 98.6731 44.6599C98.3732 45.0508 98.4658 46.1278 98.2686 46.6411C97.6483 48.2574 94.4541 47.1906 93.0725 47.8209C93.0453 48.3421 93.0113 48.8704 93.6783 48.9858C95.7984 49.0902 98.0307 48.8642 100.136 48.985C100.477 49.0047 100.693 49.1334 100.983 49.2621C101.453 48.4175 104.109 47.6247 103.918 46.7353C103.867 46.4983 103.22 46.1654 103.298 45.7934C104.461 44.6041 106.572 45.2415 107.359 46.5516C108.597 48.6153 107.539 51.0165 105.826 52.5229C106.836 53.3761 107.707 54.2278 107.447 55.5905C106.967 58.0969 103.257 58.7885 102.838 60.2831C102.648 60.9597 102.867 61.8506 102.17 62.335H95.032C94.4439 63.0917 94.7303 64.2314 95.7857 64.4646C97.8863 64.9285 102.126 64.3947 104.55 64.5321C104.962 64.5556 105.361 64.8131 105.602 64.8186C105.764 64.8217 108.217 63.2549 108.285 63.1184C108.827 62.0218 106.378 60.5884 108.969 60.5963C111.167 60.6033 112.554 62.7683 112.46 64.6153C112.413 65.5376 111.514 66.8642 111.598 67.4278C111.687 68.026 112.939 68.3863 113.377 68.9381C114.709 70.6164 113.351 72.7923 111.428 73.3991C110.649 73.6448 109.503 73.6008 108.888 74.0357C108.384 74.3913 108.39 75.0412 107.955 75.5287C107.543 75.9894 106.543 76.2689 106.417 76.4628C106.357 76.5538 106.152 78.3137 106.151 78.5822C106.148 79.7369 106.453 81.0886 106.407 82.2888L109.142 84.6256L124.951 84.6217C125.456 84.6076 125.965 84.7874 126.191 85.212C126.359 85.7434 125.647 87.1391 125.398 87.7184C123.411 92.3207 119.223 98.7236 115.598 102.372C115.051 102.923 114.302 103.865 113.429 103.589C104.629 98.2064 94.6674 94.269 85.7842 89.0905C84.5436 88.3676 80.5013 85.9672 80.5013 84.5511V8.32849H80.5022Z" fill="#4B2519"/>
<path d="M77.019 71.9147C77.3887 71.9296 77.2944 73.6801 77.2799 74.0365C76.9596 82.2299 74.9533 85.7474 82.7285 91.44C90.4764 97.1129 99.4276 100.592 106.159 107.788C106.883 108.562 109.119 111.297 109.173 112.203C109.204 112.733 107.669 114.244 107.191 114.699C100.871 120.696 90.9625 126.008 82.2373 128.227C81.1794 128.496 78.4619 129.235 77.5212 129.217C76.0121 129.188 73.0023 126.585 72.4304 125.288C69.198 117.958 81.5847 112.795 82.3503 106.038C83.2579 98.0258 74.6381 95.1089 70.5066 89.5443C65.1855 82.3783 70.8321 76.2383 77.019 71.9155V71.9147Z" fill="#BC5A2C"/>
<path d="M54.3377 72.0725C54.7039 71.8331 57.0696 73.3245 57.5123 73.6032C58.7181 74.3622 61.4772 76.0805 62.4018 76.9346C62.5513 77.0727 62.6737 77.2187 62.7612 77.3977C61.2928 79.0555 59.5084 80.3656 58.7037 82.4646C56.2462 88.8715 63.158 91.6495 62.4867 97.7338C62.1358 100.914 57.6789 103.819 54.9962 105.415C48.1473 109.489 40.4316 112.332 34.8701 118.064C34.0747 118.884 33.2963 120.76 31.8917 120.352C31.0895 120.119 27.7348 117.615 26.8884 116.963C25.901 116.202 24.5244 115.136 23.656 114.297C23.0909 113.751 21.7305 112.5 21.9437 111.785C22.6065 109.565 27.2801 105.469 29.2677 103.941C35.5193 99.1373 43.6445 95.9205 49.574 91.144C56.8606 85.274 54.2994 80.5399 54.1575 72.7711C54.1533 72.5262 54.2859 72.304 54.3368 72.0717L54.3377 72.0725Z" fill="#BE5A2B"/>
<path d="M68.6049 76.3074L66.4295 79.2416C60.2366 89.257 70.7428 92.2438 74.5854 99.2771C79.8912 108.988 65.7183 113.277 62.4052 120.739C60.8238 124.299 61.7491 127.179 64.357 129.998C56.5844 130.074 48.8679 128.368 41.7989 125.483C41.2168 125.205 41.3553 123.896 41.408 123.321C42.296 113.618 58.8796 109.323 64.702 102.922C70.9408 96.0618 60.7541 91.367 61.4704 84.7081C61.7984 81.6546 65.0793 78.6214 67.6047 76.8725C67.773 76.7564 68.4757 76.1896 68.6057 76.3074H68.6049Z" fill="#D3A359"/>
<path d="M127.068 80.3884H115.002C114.966 80.2047 115.021 80.0854 115.093 79.9237C115.688 78.5846 117.451 76.5115 118.261 75.0004C129.652 53.771 122.406 28.2698 103.109 13.4284C95.4177 7.51291 86.254 3.69719 76.5278 1.5613C75.7622 1.09738 76.1523 0.0172693 77.0105 0C114.68 5.0803 139.437 40.4407 129.23 74.4564C128.624 76.4754 127.784 78.4072 127.069 80.3884H127.068Z" fill="#D3A55B"/>
<path d="M4.53502 80.3884C3.69377 78.28 2.84233 76.1598 2.20417 73.9855C-7.23989 41.8262 14.6138 8.24608 49.6029 0.899575C50.417 0.728452 55.252 -0.274735 55.5384 0.0989094C55.8247 0.472553 55.7313 1.32817 55.2333 1.54796C36.8967 5.08109 20.8832 16.153 13.0027 31.9277C6.37047 45.2054 6.05096 61.0484 12.8871 74.3214C13.7921 76.0789 15.6497 78.3232 16.338 79.9253C16.4076 80.087 16.4705 80.2024 16.4314 80.3884H4.53502Z" fill="#D3A55B"/>
<path d="M70.6451 71.2043C70.5151 70.7836 67.3404 69.8699 66.7448 69.7835C64.7181 69.4876 62.8759 70.2466 61.1144 71.0355L60.7048 73.4799C59.1005 72.9728 59.7599 72.0364 59.5245 70.8024C59.2993 70.5041 57.9372 70.7451 57.3797 70.5858C57.2302 70.5434 56.0567 69.7686 55.874 69.6218C54.9223 68.8533 53.4344 67.0699 55.1169 66.2802C55.8281 65.9458 56.4875 66.2574 57.0466 66.022C57.2565 65.9333 58.0587 65.1711 58.4241 64.9395C58.9059 64.6341 59.5067 64.5195 59.9383 64.1404C55.6565 62.9041 60.268 61.7706 61.4679 60.3726C58.3578 59.4628 60.8178 58.3159 62.1451 57.2295C62.2513 56.9674 61.6922 56.9038 61.4883 56.5867C60.8824 55.6455 62.3932 55.253 62.9974 54.7208C61.4883 54.0167 62.3389 53.4829 63.3348 52.8377L62.7382 51.9624C62.8733 51.2842 63.7639 50.9867 63.8344 50.7724C63.9355 50.4647 63.5242 50.1507 63.5038 49.8414C63.4682 49.2888 64.2304 48.8398 64.5031 48.4191C64.6136 48.2495 65.6495 46.2612 65.8007 46.3224C66.6071 46.795 66.7218 47.6663 67.0974 48.2645C67.4526 48.8312 69.1886 49.9121 67.7611 50.4098L67.7585 50.6358C68.5496 51.3902 69.5974 51.9648 68.2692 52.8369C69.266 53.4821 70.1157 54.0159 68.6066 54.72C69.2439 55.264 70.8448 55.7106 70.046 56.6824C69.8446 56.9273 69.3458 56.9595 69.4572 57.2303C70.1055 57.8324 71.8288 58.3842 71.6724 59.4212C71.5747 60.0703 70.4845 60.1245 70.1361 60.6057C70.8949 60.966 73.5563 62.2431 73.2963 63.1239C73.0227 63.7636 72.2945 63.93 71.6656 64.1396C72.0718 64.4567 72.574 64.485 73.049 64.7456C73.5801 65.0376 73.9387 65.6114 74.4571 65.7998C75.3952 66.1413 76.1922 65.6295 77.0003 66.4333C77.5212 66.9514 77.5306 67.2677 77.2816 67.9161C76.6859 69.4664 74.3568 71.0748 72.5145 70.654L72.433 72.8551C71.8959 73.1652 71.3071 73.5302 70.646 73.4807V71.2043H70.6451Z" fill="#D5A55A"/>
<path d="M65.7183 45.6929L64.583 43.8875C65.3758 42.1778 66.2927 42.2147 67.0736 43.8922L65.7191 45.6929H65.7183Z" fill="#D4A55A"/>
</svg>
